<svg xmlns="http://www.w3.org/2000/svg" xmlns:xlink="http://www.w3.org/1999/xlink" width="48" zoomAndPan="magnify" viewBox="0 0 36 36.000001" height="48" preserveAspectRatio="xMidYMid meet" version="1.0"><defs><clipPath id="d80cdcf416"><path d="M 0.488281 0 L 35.511719 0 L 35.511719 35.027344 L 0.488281 35.027344 Z M 0.488281 0 " clip-rule="nonzero"/></clipPath><clipPath id="c5dcbb9e71"><path d="M 6.105469 12 L 30.1875 12 L 30.1875 25 L 6.105469 25 Z M 6.105469 12 " clip-rule="nonzero"/></clipPath><clipPath id="110a8e0980"><path d="M 6.105469 5.617188 L 30.1875 5.617188 L 30.1875 29.699219 L 6.105469 29.699219 Z M 6.105469 5.617188 " clip-rule="nonzero"/></clipPath><clipPath id="8d3de9ab2e"><path d="M 17 18 L 27 18 L 27 27 L 17 27 Z M 17 18 " clip-rule="nonzero"/></clipPath><clipPath id="ccf402977f"><path d="M 24.453125 16.546875 L 27.464844 18.605469 L 20.878906 28.246094 L 17.867188 26.1875 Z M 24.453125 16.546875 " clip-rule="nonzero"/></clipPath><clipPath id="58aa1d851f"><path d="M 24.453125 16.546875 L 27.464844 18.605469 L 20.878906 28.246094 L 17.867188 26.1875 Z M 24.453125 16.546875 " clip-rule="nonzero"/></clipPath><clipPath id="5927fd3cd8"><path d="M 24.453125 16.546875 L 27.464844 18.605469 L 20.878906 28.246094 L 17.867188 26.1875 Z M 24.453125 16.546875 " clip-rule="nonzero"/></clipPath></defs><g clip-path="url(#d80cdcf416)"><path fill="#ffffff" d="M 0.488281 0 L 35.511719 0 L 35.511719 35.027344 L 0.488281 35.027344 Z M 0.488281 0 " fill-opacity="1" fill-rule="nonzero"/><path fill="#ffffff" d="M 0.488281 0 L 35.511719 0 L 35.511719 35.027344 L 0.488281 35.027344 Z M 0.488281 0 " fill-opacity="1" fill-rule="nonzero"/></g><g clip-path="url(#c5dcbb9e71)"><path fill="#231f20" d="M 6.679688 24.4375 C 6.519531 24.4375 6.386719 24.382812 6.277344 24.265625 C 6.164062 24.152344 6.109375 24.015625 6.109375 23.859375 C 6.109375 23.699219 6.164062 23.5625 6.277344 23.449219 L 13.328125 16.570312 C 13.441406 16.460938 13.574219 16.40625 13.730469 16.40625 C 13.886719 16.40625 14.019531 16.460938 14.132812 16.570312 L 16.851562 19.242188 L 23.558594 13.074219 C 23.667969 12.972656 23.800781 12.921875 23.949219 12.921875 C 24.097656 12.921875 24.226562 12.972656 24.339844 13.074219 L 29.933594 18.265625 C 30.039062 18.378906 30.089844 18.507812 30.089844 18.660156 C 30.089844 18.808594 30.039062 18.941406 29.933594 19.050781 C 29.832031 19.160156 29.707031 19.21875 29.554688 19.230469 C 29.40625 19.242188 29.273438 19.199219 29.15625 19.105469 L 23.984375 14.277344 L 17.261719 20.457031 C 17.152344 20.558594 17.019531 20.613281 16.867188 20.613281 C 16.714844 20.613281 16.582031 20.558594 16.472656 20.457031 L 13.765625 17.714844 L 7.113281 24.230469 C 7 24.367188 6.855469 24.433594 6.679688 24.4375 Z M 6.679688 24.4375 " fill-opacity="1" fill-rule="nonzero"/></g><path fill="#231f20" d="M 12.414062 14.035156 C 12.082031 14.039062 11.761719 13.976562 11.457031 13.851562 C 11.152344 13.726562 10.882812 13.546875 10.648438 13.3125 C 10.414062 13.078125 10.230469 12.808594 10.105469 12.503906 C 9.976562 12.199219 9.914062 11.882812 9.914062 11.550781 C 9.910156 11.21875 9.976562 10.902344 10.101562 10.597656 C 10.226562 10.292969 10.40625 10.023438 10.640625 9.789062 C 10.875 9.554688 11.144531 9.375 11.449219 9.246094 C 11.757812 9.121094 12.074219 9.058594 12.40625 9.058594 C 12.734375 9.058594 13.054688 9.125 13.359375 9.25 C 13.664062 9.378906 13.933594 9.558594 14.164062 9.792969 C 14.398438 10.027344 14.578125 10.296875 14.703125 10.605469 C 14.828125 10.910156 14.890625 11.226562 14.890625 11.558594 C 14.886719 11.886719 14.824219 12.203125 14.699219 12.503906 C 14.570312 12.808594 14.390625 13.074219 14.160156 13.308594 C 13.929688 13.539062 13.660156 13.71875 13.359375 13.84375 C 13.054688 13.96875 12.742188 14.035156 12.414062 14.035156 Z M 12.414062 10.21875 C 12.234375 10.214844 12.0625 10.25 11.898438 10.316406 C 11.730469 10.382812 11.585938 10.476562 11.457031 10.601562 C 11.332031 10.730469 11.234375 10.875 11.164062 11.039062 C 11.09375 11.203125 11.058594 11.371094 11.058594 11.550781 C 11.058594 11.730469 11.089844 11.902344 11.160156 12.066406 C 11.226562 12.230469 11.324219 12.375 11.449219 12.503906 C 11.574219 12.628906 11.71875 12.726562 11.882812 12.796875 C 12.046875 12.867188 12.21875 12.898438 12.398438 12.902344 C 12.574219 12.902344 12.746094 12.867188 12.910156 12.800781 C 13.078125 12.730469 13.222656 12.636719 13.347656 12.507812 C 13.472656 12.382812 13.570312 12.238281 13.640625 12.074219 C 13.707031 11.910156 13.742188 11.738281 13.742188 11.558594 C 13.742188 11.382812 13.707031 11.210938 13.640625 11.046875 C 13.574219 10.882812 13.476562 10.738281 13.355469 10.613281 C 13.230469 10.488281 13.085938 10.390625 12.921875 10.324219 C 12.757812 10.253906 12.589844 10.21875 12.414062 10.21875 Z M 12.414062 10.21875 " fill-opacity="1" fill-rule="nonzero"/><g clip-path="url(#110a8e0980)"><path fill="#231f20" d="M 26.171875 29.722656 L 10.117188 29.722656 C 9.59375 29.71875 9.085938 29.613281 8.601562 29.410156 C 8.117188 29.207031 7.6875 28.917969 7.316406 28.546875 C 6.941406 28.175781 6.65625 27.746094 6.453125 27.261719 C 6.25 26.777344 6.144531 26.269531 6.140625 25.742188 L 6.140625 9.691406 C 6.144531 9.164062 6.25 8.65625 6.453125 8.171875 C 6.65625 7.6875 6.941406 7.257812 7.316406 6.886719 C 7.6875 6.515625 8.117188 6.226562 8.601562 6.023438 C 9.085938 5.820312 9.59375 5.714844 10.117188 5.710938 L 26.171875 5.710938 C 26.4375 5.710938 26.699219 5.738281 26.957031 5.789062 C 27.214844 5.839844 27.464844 5.914062 27.707031 6.015625 C 27.953125 6.117188 28.183594 6.242188 28.402344 6.386719 C 28.621094 6.535156 28.824219 6.699219 29.011719 6.886719 C 29.199219 7.074219 29.363281 7.273438 29.511719 7.496094 C 29.65625 7.714844 29.78125 7.945312 29.882812 8.1875 C 29.980469 8.433594 30.058594 8.683594 30.109375 8.941406 C 30.160156 9.199219 30.1875 9.460938 30.1875 9.722656 L 30.1875 25.742188 C 30.183594 26.007812 30.15625 26.265625 30.105469 26.523438 C 30.050781 26.777344 29.972656 27.027344 29.871094 27.269531 C 29.769531 27.511719 29.644531 27.738281 29.5 27.957031 C 29.351562 28.175781 29.183594 28.375 29 28.558594 C 28.8125 28.742188 28.609375 28.910156 28.390625 29.054688 C 28.171875 29.199219 27.941406 29.320312 27.699219 29.421875 C 27.457031 29.519531 27.207031 29.597656 26.953125 29.648438 C 26.695312 29.699219 26.433594 29.722656 26.171875 29.722656 Z M 10.117188 6.855469 C 9.738281 6.855469 9.375 6.929688 9.023438 7.074219 C 8.671875 7.222656 8.359375 7.429688 8.089844 7.695312 C 7.824219 7.964844 7.617188 8.277344 7.46875 8.628906 C 7.324219 8.976562 7.253906 9.34375 7.253906 9.722656 L 7.253906 25.742188 C 7.253906 26.125 7.324219 26.488281 7.46875 26.839844 C 7.617188 27.191406 7.824219 27.503906 8.089844 27.769531 C 8.359375 28.039062 8.671875 28.246094 9.023438 28.390625 C 9.375 28.539062 9.738281 28.609375 10.117188 28.609375 L 26.171875 28.609375 C 26.554688 28.609375 26.917969 28.539062 27.269531 28.390625 C 27.621094 28.246094 27.929688 28.039062 28.199219 27.769531 C 28.46875 27.503906 28.675781 27.191406 28.820312 26.839844 C 28.96875 26.488281 29.039062 26.125 29.039062 25.742188 L 29.039062 9.691406 C 29.039062 9.308594 28.96875 8.945312 28.820312 8.59375 C 28.675781 8.242188 28.46875 7.929688 28.199219 7.664062 C 27.929688 7.394531 27.621094 7.1875 27.269531 7.042969 C 26.917969 6.894531 26.554688 6.824219 26.171875 6.824219 Z M 10.117188 6.855469 " fill-opacity="1" fill-rule="nonzero"/></g><g clip-path="url(#8d3de9ab2e)"><g clip-path="url(#ccf402977f)"><g clip-path="url(#58aa1d851f)"><g clip-path="url(#5927fd3cd8)"><path fill="#000000" d="M 26.890625 18.230469 C 24.914062 19.371094 22.941406 20.511719 20.964844 21.652344 C 21.402344 21.949219 21.835938 22.246094 22.273438 22.542969 C 20.824219 23.769531 19.378906 24.992188 17.929688 26.214844 C 20.230469 24.964844 22.527344 23.714844 24.828125 22.464844 C 24.316406 22.117188 23.804688 21.765625 23.292969 21.414062 C 24.492188 20.355469 25.691406 19.292969 26.890625 18.230469 " fill-opacity="1" fill-rule="nonzero"/></g></g></g></g></svg>